<?xml version="1.0" encoding="utf-8"?>
<?xml-stylesheet type="text/xsl" href="rss1.xsl"?>
<rss version="2.0" xmlns:atom="http://www.w3.org/2005/Atom" xmlns:content="http://purl.org/rss/1.0/modules/content/" xmlns:dc="http://purl.org/dc/elements/1.1/" xmlns:media="http://search.yahoo.com/mrss/">
<channel>
 <title>Getty</title>
 <link>http://www.gettyimg.com/</link>
 <atom:link href="http://www.gettyimg.com/" rel="self" type="application/rss+xml" />

 
                <item>
                <title><![CDATA[【HD Live Performances】FEED - Rihanna: Live @ Rock In Rio (2015) FEED 1080p H.264 MPA2.0-HDMania [CHAPTER MENU]]]></title>
                <link><![CDATA[https://sharemania.us/threads/rihanna-live-rock-in-rio-2015-feed-1080p-h-264-mpa2-0-hdmania-chapter-menu.251037/]]></link>
                <description><![CDATA[<article>
<blockquote class="messageText SelectQuoteContainer ugc baseHtml">
<img src="https://i.postimg.cc/6QjWWrY3/Banner-Rock-In-Rio.jpg" class="bbCodeImage LbImage" alt="[​IMG]" data-url="https://i.postimg.cc/6QjWWrY3/Banner-Rock-In-Rio.jpg" style=""><br>
<img src="https://i.postimg.cc/63yWSxP4/Rihanna-Cap-tulos.jpg" class="bbCodeImage LbImage" alt="[​IMG]" data-url="https://i.postimg.cc/63yWSxP4/Rihanna-Cap-tulos.jpg" style=""><br>
<div style="text-align: center"><a href="https://postimg.cc/Hj21n6KC" target="_blank" class="externalLink" rel="nofollow"><img src="https://i.postimg.cc/Hj21n6KC/vlcsnap-2024-07-26-04h15m02s208.png" class="bbCodeImage LbImage" alt="[​IMG]" data-url="https://i.postimg.cc/Hj21n6KC/vlcsnap-2024-07-26-04h15m02s208.png"></a> <a href="https://postimg.cc/0byRwpRK" target="_blank" class="externalLink" rel="nofollow"><img src="https://i.postimg.cc/0byRwpRK/vlcsnap-2024-07-26-04h15m42s880.png" class="bbCodeImage LbImage" alt="[​IMG]" data-url="https://i.postimg.cc/0byRwpRK/vlcsnap-2024-07-26-04h15m42s880.png"></a> <a href="https://postimg.cc/crkqMr09" target="_blank" class="externalLink" rel="nofollow"><img src="https://i.postimg.cc/crkqMr09/vlcsnap-2024-07-26-04h18m18s834.png" class="bbCodeImage LbImage" alt="[​IMG]" data-url="https://i.postimg.cc/crkqMr09/vlcsnap-2024-07-26-04h18m18s834.png"></a> <a href="https://postimg.cc/4YYD8s3J" target="_blank" class="externalLink" rel="nofollow"><img src="https://i.postimg.cc/4YYD8s3J/vlcsnap-2024-07-26-04h18m34s159.png" class="bbCodeImage LbImage" alt="[​IMG]" data-url="https://i.postimg.cc/4YYD8s3J/vlcsnap-2024-07-26-04h18m34s159.png"></a> <a href="https://postimg.cc/5YVDNzS0" target="_blank" class="externalLink" rel="nofollow"><img src="https://i.postimg.cc/5YVDNzS0/vlcsnap-2024-07-26-04h18m43s016.png" class="bbCodeImage LbImage" alt="[​IMG]" data-url="https://i.postimg.cc/5YVDNzS0/vlcsnap-2024-07-26-04h18m43s016.png"></a> <a href="https://postimg.cc/JD5vyhpQ" target="_blank" class="externalLink" rel="nofollow"><img src="https://i.postimg.cc/JD5vyhpQ/vlcsnap-2024-07-26-04h19m04s372.png" class="bbCodeImage LbImage" alt="[​IMG]" data-url="https://i.postimg.cc/JD5vyhpQ/vlcsnap-2024-07-26-04h19m04s372.png"></a>​</div>
<div class="ToggleTriggerAnchor bbCodeSpoilerContainer">
<button type="button" class="button bbCodeSpoilerButton ToggleTrigger Tooltip JsOnly" data-target="> .SpoilerTarget"><span>Spoiler: <span class="SpoilerTitle">MediaInfo</span></span></button>
<div class="SpoilerTarget bbCodeSpoilerText">
<div class="bbCodeBlock bbCodeCode">
<div class="type">Code:</div>
<pre>General
Unique ID                   : 176713208877826202506449941412369738937 (0x84F1B9DEB7CB680CB198801D6DF12CB9)
Complete name               : Rihanna - Rock In Rio 2015 1080p.mkv
Format                      : Matroska
Format version              : Version 4
File size                   : 8.01 GiB
Duration                    : 1 h 23 min
Overall bit rate mode       : Constant
Overall bit rate            : 13.7 Mb/s
Frame rate                  : 59.940 FPS
Encoded date                : 2022-03-03 02:00:37 UTC
Writing application         : mkvmerge v65.0.0 ('Too Much') 64-bit
Writing library             : libebml v1.4.2 + libmatroska v1.6.4

Video
ID                          : 1
Format                      : AVC
Format/Info                 : Advanced Video Codec
Format profile              : High@L4.1
Format settings             : CABAC / 2 Ref Frames
Format settings, CABAC      : Yes
Format settings, Reference  : 2 frames
Format settings, GOP        : M=3, N=18
Codec ID                    : V_MPEG4/ISO/AVC
Duration                    : 1 h 23 min
Bit rate mode               : Constant
Bit rate                    : 13.9 Mb/s
Width                       : 1 920 pixels
Height                      : 1 080 pixels
Display aspect ratio        : 16:9
Frame rate mode             : Variable
Frame rate                  : 59.940 (59940/1000) FPS
Original frame rate         : 29.970 (30000/1001) FPS
Color space                 : YUV
Chroma subsampling          : 4:2:0
Bit depth                   : 8 bits
Scan type                   : Interlaced
Scan type, store method     : Separated fields
Scan order                  : Top Field First
Bits/(Pixel*Frame)          : 0.111
Stream size                 : 7.71 GiB (96%)
Default                     : Yes
Forced                      : No
Color range                 : Limited
Color primaries             : BT.709
Transfer characteristics    : BT.709
Matrix coefficients         : BT.709

Audio #1
ID                          : 2
Format                      : MPEG Audio
Format version              : Version 1
Format profile              : Layer 2
Format settings             : Dual mono
Codec ID                    : A_MPEG/L2
Codec ID/Hint               : MP2
Duration                    : 1 h 23 min
Bit rate mode               : Constant
Bit rate                    : 256 kb/s
Channel(s)                  : 2 channels
Sampling rate               : 48.0 kHz
Frame rate                  : 41.667 FPS (1152 SPF)
Compression mode            : Lossy
Delay relative to video     : -609 ms
Stream size                 : 153 MiB (2%)
Default                     : Yes
Forced                      : No

Audio #2
ID                          : 3
Format                      : MPEG Audio
Format version              : Version 1
Format profile              : Layer 2
Format settings             : Dual mono
Codec ID                    : A_MPEG/L2
Codec ID/Hint               : MP2
Duration                    : 1 h 23 min
Bit rate mode               : Constant
Bit rate                    : 256 kb/s
Channel(s)                  : 2 channels
Sampling rate               : 48.0 kHz
Frame rate                  : 41.667 FPS (1152 SPF)
Compression mode            : Lossy
Delay relative to video     : -601 ms
Stream size                 : 153 MiB (2%)
Default                     : Yes
Forced                      : No

Menu
00:07:33.000                : en:Introdução
00:09:14.000                : en:Rockstar
00:11:29.000                : en:Only Girl
00:13:18.000                : en:S&amp;M
00:15:27.000                : en:Phresh
00:18:16.000                : en:Cake
00:23:57.000                : en:Rude Boy
00:25:52.000                : en:What's My Name
00:27:12.000                : en:Talk That Talk
00:29:09.000                : en:Live Your Life/ Run THis Town/ All the Lights
00:34:18.000                : en:Man Down
00:40:22.000                : en:Umbrella
00:44:32.000                : en:Unfaithfull
00:47:23.000                : en:Love The Way You Lie
00:48:02.000                : en:Take a Bow
00:49:28.000                : en:Cold Case
00:52:07.000                : en:Take Care
00:53:42.000                : en:Where Have You Been
00:56:06.000                : en:We Found Love
00:59:36.000                : en:Four Five Seconds
01:02:20.000                : en:Stay
01:07:08.000                : en:Diamonds
01:12:30.000                : en:Pour It Up
01:15:34.000                : en:Bitch Better Have My Money
</pre>
</div></div>
</div>
<div class="bbCodeBlock bbCodeVfcHH HiddenContent">
<div class="attribution type">Hidden Content:</div>
<blockquote>You must either reply or click 'Like' to see the hidden information contained here.</blockquote>
</div>
<div class="messageTextEndMarker">&nbsp;</div>
</blockquote>
</article>]]></description>
                <author><![CDATA[AlexVicente]]></author>
                </item>

                
                <item>
                <title><![CDATA[【Bugs!】KARA - I Do I Do (Bugs! 1080p)]]></title>
                <link><![CDATA[https://sharemania.us/threads/kara-i-do-i-do-bugs-1080p.251038/]]></link>
                <description><![CDATA[<article>
<blockquote class="messageText SelectQuoteContainer ugc baseHtml">
<span data-s9e-mediaembed="youtube" style="display:inline-block;width:100%;max-width:640px"><span style="display:block;overflow:hidden;position:relative;padding-bottom:56.25%"><iframe allowfullscreen="" loading="lazy" scrolling="no" style="background:url(https://i.ytimg.com/vi/nlN3f6hCAuQ/hqdefault.jpg) 50% 50% / cover;border:0;height:100%;left:0;position:absolute;width:100%" src="https://www.youtube.com/embed/nlN3f6hCAuQ"></iframe></span></span><br>
<div class="ToggleTriggerAnchor bbCodeSpoilerContainer">
<button type="button" class="button bbCodeSpoilerButton ToggleTrigger Tooltip JsOnly" data-target="> .SpoilerTarget"><span>Spoiler: <span class="SpoilerTitle">MediaInfo</span></span></button>
<div class="SpoilerTarget bbCodeSpoilerText">General<br>
Complete name : ./bugs/KARA - I Do I Do (Bugs! 1080p).mp4<br>
Format : MPEG-4<br>
Format profile : Base Media<br>
Codec ID : isom (isom/iso2/avc1/mp41)<br>
File size : 389 MiB<br>
Duration : 3 min 16 s<br>
Overall bit rate : 16.6 Mb/s<br>
Frame rate : 23.976 FPS<br>
Writing application : Bugs<br>
<br>
Video<br>
ID : 1<br>
Format : AVC<br>
Format/Info : Advanced Video Codec<br>
Format profile : High@L4<br>
Format settings : CABAC / 4 Ref Frames<br>
Format settings, CABAC : Yes<br>
Format settings, Reference frames : 4 frames<br>
Codec ID : avc1<br>
Codec ID/Info : Advanced Video Coding<br>
Duration : 3 min 16 s<br>
Bit rate : 16.4 Mb/s<br>
Width : 1 920 pixels<br>
Height : 1 080 pixels<br>
Display aspect ratio : 16:9<br>
Frame rate mode : Constant<br>
Frame rate : 23.976 (24000/1001) FPS<br>
Color space : YUV<br>
Chroma subsampling : 4:2:0<br>
Bit depth : 8 bits<br>
Scan type : Progressive<br>
Bits/(Pixel*Frame) : 0.330<br>
Stream size : 385 MiB (99%)<br>
Title : Core Media Video<br>
Writing library : x264 core 142 r2438 af8e768<br>
Encoding settings : cabac=1 / ref=4 / deblock=1:0:0 / analyse=0x3:0x113 / me=umh / subme=8 / psy=1 / psy_rd=1.00:0.00 / mixed_ref=1 / me_range=16 / chroma_me=1 / trellis=1 / 8x8dct=1 / cqm=0 / deadzone=21,11 / fast_pskip=1 / chroma_qp_offset=-2 / threads=60 / lookahead_threads=8 / sliced_threads=0 / nr=0 / decimate=1 / interlaced=0 / bluray_compat=0 / constrained_intra=0 / bframes=2 / b_pyramid=2 / b_adapt=2 / b_bias=0 / direct=3 / weightb=1 / open_gop=0 / weightp=2 / keyint=48 / keyint_min=25 / scenecut=0 / intra_refresh=0 / rc_lookahead=48 / rc=crf / mbtree=1 / crf=17.0 / qcomp=0.60 / qpmin=0 / qpmax=69 / qpstep=4 / ip_ratio=1.40 / aq=1:1.00<br>
Color range : Limited<br>
Color primaries : BT.709<br>
Transfer characteristics : BT.709<br>
Matrix coefficients : BT.709<br>
Codec configuration box : avcC<br>
<br>
Audio<br>
ID : 2<br>
Format : AAC LC<br>
Format/Info : Advanced Audio Codec Low Complexity<br>
Codec ID : mp4a-40-2<br>
Duration : 3 min 16 s<br>
Duration_LastFrame : -14 ms<br>
Bit rate mode : Constant<br>
Bit rate : 192 kb/s<br>
Channel(s) : 2 channels<br>
Channel layout : L R<br>
Sampling rate : 44.1 kHz<br>
Frame rate : 43.066 FPS (1024 SPF)<br>
Compression mode : Lossy<br>
Stream size : 4.51 MiB (1%)<br>
Title : Core Media Audio<br>
Default : Yes<br>
Alternate group : 1<br>
<br>
Other<br>
ID : 3<br>
Type : Time code<br>
Format : QuickTime TC<br>
Duration : 3 min 16 s<br>
Frame rate : 23.976 (24000/1001) FPS<br>
Time code of first frame : 00:00:00:00<br>
Time code of last frame : 00:03:16:14<br>
Time code, stripped : Yes<br>
Title : Core Media Video<br>
Language : English<br>
Default : No</div>
</div>
<div class="bbCodeBlock bbCodeVfcHH HiddenContent">
<div class="attribution type">Hidden Content:</div>
<blockquote>You must either reply or click 'Like' to see the hidden information contained here.</blockquote>
</div>
<div class="messageTextEndMarker">&nbsp;</div>
</blockquote>
</article>]]></description>
                <author><![CDATA[Once14]]></author>
                </item>

                </channel></rss>